<svg width="270" height="300" viewBox="0 0 270 300" fill="none" xmlns="http://www.w3.org/2000/svg">
<g clip-path="url(#clip0_13046_4365)">
<path d="M154.608 247.047H90.0195V256.435H154.608V247.047Z" fill="#94332A"/>
<path d="M109.131 256.434L96.541 318.976" stroke="black" stroke-width="0.804298" stroke-miterlimit="10" stroke-linecap="round" stroke-linejoin="round"/>
<path d="M97.082 256.434L109.672 318.976" stroke="black" stroke-width="0.804298" stroke-miterlimit="10" stroke-linecap="round" stroke-linejoin="round"/>
<path d="M147.358 256.434L134.768 318.976" stroke="black" stroke-width="0.804298" stroke-miterlimit="10" stroke-linecap="round" stroke-linejoin="round"/>
<path d="M135.307 256.434L147.897 318.976" stroke="black" stroke-width="0.804298" stroke-miterlimit="10" stroke-linecap="round" stroke-linejoin="round"/>
<path d="M176.135 291.738L177.002 304.643L193.386 306.333C193.386 306.333 195.479 294.357 196.566 290.313C196.566 290.313 184.332 288.567 176.135 291.738Z" fill="#0D968B"/>
<path d="M142.303 291.738L143.17 304.643L159.554 306.333C159.554 306.333 161.647 294.357 162.734 290.313C162.734 290.313 150.5 288.567 142.303 291.738Z" fill="#0D968B"/>
<path d="M134.639 210.044C134.639 210.044 115.003 221.248 125.301 237.997C135.6 254.747 177.999 249.762 177.999 249.762C177.999 249.762 174.903 271.425 176.134 291.738C176.134 291.738 188.039 291.738 196.566 290.313C196.566 290.313 210.832 242.635 210.832 232.299C210.832 221.964 197.085 214.402 184.458 211.264C171.831 208.128 134.639 210.044 134.639 210.044Z" fill="black"/>
<path d="M100.709 210.044C100.709 210.044 84.4969 226.242 94.796 242.991C105.094 259.741 144.069 249.762 144.069 249.762C144.069 249.762 140.974 271.425 142.204 291.738C142.204 291.738 154.109 291.738 162.636 290.313C162.636 290.313 176.902 242.635 176.902 232.299C176.902 221.964 163.155 214.402 150.528 211.264C137.901 208.128 100.709 210.044 100.709 210.044Z" fill="black"/>
<path d="M171.717 259.366C174.14 246.761 176.901 235.906 176.901 232.3C176.901 221.965 163.154 214.402 150.527 211.265" stroke="#FFFBF8" stroke-width="0.804298" stroke-miterlimit="10" stroke-linecap="round" stroke-linejoin="round"/>
<path d="M131.305 134.145C131.305 134.145 114.899 134.145 103.514 140.186C92.1299 146.228 61.6607 205.642 100.836 208.663H166.127C166.127 208.663 179.855 202.957 177.177 162.341C177.177 162.341 176.173 133.809 131.305 134.145Z" fill="#0D968B"/>
<mask id="mask0_13046_4365" style="mask-type:luminance" maskUnits="userSpaceOnUse" x="81" y="134" width="97" height="75">
<path d="M131.305 134.145C131.305 134.145 114.899 134.145 103.514 140.186C92.1299 146.228 61.6607 205.642 100.836 208.663H166.127C166.127 208.663 179.855 202.957 177.177 162.341C177.178 162.34 176.173 133.809 131.305 134.145Z" fill="white"/>
</mask>
<g mask="url(#mask0_13046_4365)">
<path d="M165.337 139.557C165.675 139.557 165.948 139.282 165.948 138.944C165.948 138.606 165.675 138.332 165.337 138.332C165 138.332 164.727 138.606 164.727 138.944C164.727 139.282 165 139.557 165.337 139.557Z" fill="#0D968B"/>
<path d="M151.911 138.944C151.911 139.283 151.638 139.557 151.3 139.557C150.963 139.557 150.689 139.283 150.689 138.944C150.689 138.606 150.963 138.332 151.3 138.332C151.638 138.332 151.911 138.606 151.911 138.944Z" fill="#0D968B"/>
<path d="M137.878 138.944C137.878 139.283 137.604 139.557 137.267 139.557C136.93 139.557 136.656 139.283 136.656 138.944C136.656 138.606 136.93 138.332 137.267 138.332C137.604 138.331 137.878 138.606 137.878 138.944Z" fill="#0D968B"/>
<path d="M123.841 138.944C123.841 139.283 123.568 139.557 123.23 139.557C122.893 139.557 122.619 139.283 122.619 138.944C122.619 138.606 122.893 138.332 123.23 138.332C123.567 138.331 123.841 138.606 123.841 138.944Z" fill="#0D968B"/>
<path d="M109.805 138.944C109.805 139.283 109.532 139.557 109.195 139.557C108.857 139.557 108.584 139.283 108.584 138.944C108.584 138.606 108.857 138.332 109.195 138.332C109.532 138.332 109.805 138.606 109.805 138.944Z" fill="#0D968B"/>
<path d="M95.1596 139.557C95.4969 139.557 95.7703 139.282 95.7703 138.944C95.7703 138.606 95.4969 138.332 95.1596 138.332C94.8223 138.332 94.5488 138.606 94.5488 138.944C94.5488 139.282 94.8223 139.557 95.1596 139.557Z" fill="#0D968B"/>
<path d="M81.1244 139.557C81.4617 139.557 81.7352 139.282 81.7352 138.944C81.7352 138.606 81.4617 138.332 81.1244 138.332C80.7871 138.332 80.5137 138.606 80.5137 138.944C80.5137 139.282 80.7871 139.557 81.1244 139.557Z" fill="#0D968B"/>
<path d="M172.964 148.724C172.964 149.062 172.69 149.336 172.353 149.336C172.016 149.336 171.742 149.062 171.742 148.724C171.742 148.385 172.016 148.111 172.353 148.111C172.69 148.111 172.964 148.385 172.964 148.724Z" fill="#0D968B"/>
<path d="M158.929 148.724C158.929 149.062 158.655 149.336 158.318 149.336C157.98 149.336 157.707 149.062 157.707 148.724C157.707 148.385 157.98 148.111 158.318 148.111C158.655 148.111 158.929 148.385 158.929 148.724Z" fill="#0D968B"/>
<path d="M144.893 148.724C144.893 149.062 144.62 149.336 144.283 149.336C143.945 149.336 143.672 149.062 143.672 148.724C143.672 148.385 143.945 148.111 144.283 148.111C144.619 148.111 144.893 148.385 144.893 148.724Z" fill="#0D968B"/>
<path d="M130.859 148.724C130.859 149.062 130.585 149.336 130.247 149.336C129.91 149.336 129.637 149.062 129.637 148.724C129.637 148.385 129.91 148.111 130.247 148.111C130.585 148.111 130.859 148.385 130.859 148.724Z" fill="#0D968B"/>
<path d="M116.823 148.724C116.823 149.062 116.55 149.336 116.212 149.336C115.875 149.336 115.602 149.062 115.602 148.724C115.602 148.385 115.875 148.111 116.212 148.111C116.55 148.111 116.823 148.385 116.823 148.724Z" fill="#0D968B"/>
<path d="M102.788 148.724C102.788 149.062 102.515 149.336 102.177 149.336C101.84 149.336 101.566 149.062 101.566 148.724C101.566 148.385 101.84 148.111 102.177 148.111C102.515 148.111 102.788 148.385 102.788 148.724Z" fill="#0D968B"/>
<path d="M88.7534 148.724C88.7534 149.062 88.48 149.336 88.142 149.336C87.8046 149.336 87.5312 149.062 87.5312 148.724C87.5312 148.385 87.8046 148.111 88.142 148.111C88.48 148.111 88.7534 148.385 88.7534 148.724Z" fill="#0D968B"/>
<path d="M165.948 158.503C165.948 158.842 165.675 159.116 165.337 159.116C165 159.116 164.727 158.842 164.727 158.503C164.727 158.165 165 157.891 165.337 157.891C165.675 157.89 165.948 158.165 165.948 158.503Z" fill="#0D968B"/>
<path d="M151.911 158.503C151.911 158.842 151.638 159.116 151.3 159.116C150.963 159.116 150.689 158.842 150.689 158.503C150.689 158.165 150.963 157.891 151.3 157.891C151.638 157.891 151.911 158.165 151.911 158.503Z" fill="#0D968B"/>
<path d="M137.878 158.503C137.878 158.842 137.604 159.116 137.267 159.116C136.93 159.116 136.656 158.842 136.656 158.503C136.656 158.165 136.93 157.891 137.267 157.891C137.604 157.89 137.878 158.165 137.878 158.503Z" fill="#0D968B"/>
<path d="M123.841 158.503C123.841 158.842 123.568 159.116 123.23 159.116C122.893 159.116 122.619 158.842 122.619 158.503C122.619 158.165 122.893 157.891 123.23 157.891C123.567 157.89 123.841 158.165 123.841 158.503Z" fill="#0D968B"/>
<path d="M109.805 158.503C109.805 158.842 109.532 159.116 109.195 159.116C108.857 159.116 108.584 158.842 108.584 158.503C108.584 158.165 108.857 157.891 109.195 157.891C109.532 157.891 109.805 158.165 109.805 158.503Z" fill="#0D968B"/>
<path d="M95.7703 158.503C95.7703 158.842 95.497 159.116 95.1596 159.116C94.8222 159.116 94.5488 158.842 94.5488 158.503C94.5488 158.165 94.8222 157.891 95.1596 157.891C95.497 157.891 95.7703 158.165 95.7703 158.503Z" fill="#0D968B"/>
<path d="M81.7352 158.503C81.7352 158.842 81.4618 159.116 81.1244 159.116C80.787 159.116 80.5137 158.842 80.5137 158.503C80.5137 158.165 80.787 157.891 81.1244 157.891C81.4612 157.89 81.7352 158.165 81.7352 158.503Z" fill="#0D968B"/>
<path d="M172.353 168.895C172.69 168.895 172.964 168.621 172.964 168.283C172.964 167.945 172.69 167.67 172.353 167.67C172.016 167.67 171.742 167.945 171.742 168.283C171.742 168.621 172.016 168.895 172.353 168.895Z" fill="#0D968B"/>
<path d="M158.318 168.895C158.655 168.895 158.929 168.621 158.929 168.283C158.929 167.945 158.655 167.67 158.318 167.67C157.98 167.67 157.707 167.945 157.707 168.283C157.707 168.621 157.98 168.895 158.318 168.895Z" fill="#0D968B"/>
<path d="M144.283 168.895C144.62 168.895 144.893 168.621 144.893 168.283C144.893 167.945 144.62 167.67 144.283 167.67C143.945 167.67 143.672 167.945 143.672 168.283C143.672 168.621 143.945 168.895 144.283 168.895Z" fill="#0D968B"/>
<path d="M130.859 168.283C130.859 168.621 130.585 168.895 130.247 168.895C129.91 168.895 129.637 168.621 129.637 168.283C129.637 167.944 129.91 167.67 130.247 167.67C130.585 167.67 130.859 167.944 130.859 168.283Z" fill="#0D968B"/>
<path d="M116.823 168.283C116.823 168.621 116.55 168.895 116.212 168.895C115.875 168.895 115.602 168.621 115.602 168.283C115.602 167.944 115.875 167.67 116.212 167.67C116.55 167.67 116.823 167.944 116.823 168.283Z" fill="#0D968B"/>
<path d="M102.177 168.895C102.514 168.895 102.788 168.621 102.788 168.283C102.788 167.945 102.514 167.67 102.177 167.67C101.84 167.67 101.566 167.945 101.566 168.283C101.566 168.621 101.84 168.895 102.177 168.895Z" fill="#0D968B"/>
<path d="M88.7534 168.283C88.7534 168.621 88.48 168.895 88.142 168.895C87.8046 168.895 87.5312 168.621 87.5312 168.283C87.5312 167.944 87.8046 167.67 88.142 167.67C88.48 167.67 88.7534 167.944 88.7534 168.283Z" fill="#0D968B"/>
<path d="M165.948 178.062C165.948 178.401 165.675 178.675 165.337 178.675C165 178.675 164.727 178.401 164.727 178.062C164.727 177.724 165 177.45 165.337 177.45C165.675 177.45 165.948 177.724 165.948 178.062Z" fill="#0D968B"/>
<path d="M151.911 178.062C151.911 178.401 151.638 178.675 151.3 178.675C150.963 178.675 150.689 178.401 150.689 178.062C150.689 177.724 150.963 177.45 151.3 177.45C151.638 177.45 151.911 177.724 151.911 178.062Z" fill="#0D968B"/>
<path d="M137.878 178.062C137.878 178.401 137.604 178.675 137.267 178.675C136.93 178.675 136.656 178.401 136.656 178.062C136.656 177.724 136.93 177.45 137.267 177.45C137.604 177.45 137.878 177.724 137.878 178.062Z" fill="#0D968B"/>
<path d="M123.841 178.062C123.841 178.401 123.568 178.675 123.23 178.675C122.893 178.675 122.619 178.401 122.619 178.062C122.619 177.724 122.893 177.45 123.23 177.45C123.567 177.45 123.841 177.724 123.841 178.062Z" fill="#0D968B"/>
<path d="M109.805 178.062C109.805 178.401 109.532 178.675 109.195 178.675C108.857 178.675 108.584 178.401 108.584 178.062C108.584 177.724 108.857 177.45 109.195 177.45C109.532 177.45 109.805 177.724 109.805 178.062Z" fill="#0D968B"/>
<path d="M95.7703 178.062C95.7703 178.401 95.497 178.675 95.1596 178.675C94.8222 178.675 94.5488 178.401 94.5488 178.062C94.5488 177.724 94.8222 177.45 95.1596 177.45C95.497 177.45 95.7703 177.724 95.7703 178.062Z" fill="#0D968B"/>
<path d="M81.7352 178.062C81.7352 178.401 81.4618 178.675 81.1244 178.675C80.787 178.675 80.5137 178.401 80.5137 178.062C80.5137 177.724 80.787 177.45 81.1244 177.45C81.4612 177.45 81.7352 177.724 81.7352 178.062Z" fill="#0D968B"/>
<path d="M172.353 188.454C172.69 188.454 172.964 188.18 172.964 187.842C172.964 187.504 172.69 187.229 172.353 187.229C172.016 187.229 171.742 187.504 171.742 187.842C171.742 188.18 172.016 188.454 172.353 188.454Z" fill="#0D968B"/>
<path d="M158.318 188.454C158.655 188.454 158.929 188.18 158.929 187.842C158.929 187.504 158.655 187.229 158.318 187.229C157.98 187.229 157.707 187.504 157.707 187.842C157.707 188.18 157.98 188.454 158.318 188.454Z" fill="#0D968B"/>
<path d="M144.283 188.454C144.62 188.454 144.893 188.18 144.893 187.842C144.893 187.504 144.62 187.229 144.283 187.229C143.945 187.229 143.672 187.504 143.672 187.842C143.672 188.18 143.945 188.454 144.283 188.454Z" fill="#0D968B"/>
<path d="M130.859 187.842C130.859 188.18 130.585 188.454 130.247 188.454C129.91 188.454 129.637 188.18 129.637 187.842C129.637 187.504 129.91 187.229 130.247 187.229C130.585 187.229 130.859 187.504 130.859 187.842Z" fill="#0D968B"/>
<path d="M116.823 187.842C116.823 188.18 116.55 188.454 116.212 188.454C115.875 188.454 115.602 188.18 115.602 187.842C115.602 187.504 115.875 187.229 116.212 187.229C116.55 187.229 116.823 187.504 116.823 187.842Z" fill="#0D968B"/>
<path d="M102.177 188.454C102.514 188.454 102.788 188.18 102.788 187.842C102.788 187.504 102.514 187.229 102.177 187.229C101.84 187.229 101.566 187.504 101.566 187.842C101.566 188.18 101.84 188.454 102.177 188.454Z" fill="#0D968B"/>
<path d="M88.7534 187.842C88.7534 188.18 88.48 188.454 88.142 188.454C87.8046 188.454 87.5312 188.18 87.5312 187.842C87.5312 187.504 87.8046 187.229 88.142 187.229C88.48 187.229 88.7534 187.504 88.7534 187.842Z" fill="#0D968B"/>
<path d="M165.337 198.233C165.675 198.233 165.948 197.959 165.948 197.621C165.948 197.282 165.675 197.008 165.337 197.008C165 197.008 164.727 197.282 164.727 197.621C164.727 197.959 165 198.233 165.337 198.233Z" fill="#0D968B"/>
<path d="M151.911 197.621C151.911 197.959 151.638 198.233 151.3 198.233C150.963 198.233 150.689 197.959 150.689 197.621C150.689 197.282 150.963 197.008 151.3 197.008C151.638 197.008 151.911 197.282 151.911 197.621Z" fill="#0D968B"/>
<path d="M137.878 197.621C137.878 197.959 137.604 198.233 137.267 198.233C136.93 198.233 136.656 197.959 136.656 197.621C136.656 197.282 136.93 197.008 137.267 197.008C137.604 197.008 137.878 197.282 137.878 197.621Z" fill="#0D968B"/>
<path d="M123.841 197.621C123.841 197.959 123.568 198.233 123.23 198.233C122.893 198.233 122.619 197.959 122.619 197.621C122.619 197.282 122.893 197.008 123.23 197.008C123.567 197.008 123.841 197.282 123.841 197.621Z" fill="#0D968B"/>
<path d="M109.805 197.621C109.805 197.959 109.532 198.233 109.195 198.233C108.857 198.233 108.584 197.959 108.584 197.621C108.584 197.282 108.857 197.008 109.195 197.008C109.532 197.008 109.805 197.282 109.805 197.621Z" fill="#0D968B"/>
<path d="M95.1596 198.233C95.4969 198.233 95.7703 197.959 95.7703 197.621C95.7703 197.282 95.4969 197.008 95.1596 197.008C94.8223 197.008 94.5488 197.282 94.5488 197.621C94.5488 197.959 94.8223 198.233 95.1596 198.233Z" fill="#0D968B"/>
<path d="M81.1244 198.233C81.4617 198.233 81.7352 197.959 81.7352 197.621C81.7352 197.282 81.4617 197.008 81.1244 197.008C80.7871 197.008 80.5137 197.282 80.5137 197.621C80.5137 197.959 80.7871 198.233 81.1244 198.233Z" fill="#0D968B"/>
<path d="M172.353 208.013C172.69 208.013 172.964 207.739 172.964 207.4C172.964 207.062 172.69 206.788 172.353 206.788C172.016 206.788 171.742 207.062 171.742 207.4C171.742 207.739 172.016 208.013 172.353 208.013Z" fill="#0D968B"/>
<path d="M158.318 208.013C158.655 208.013 158.929 207.739 158.929 207.4C158.929 207.062 158.655 206.788 158.318 206.788C157.98 206.788 157.707 207.062 157.707 207.4C157.707 207.739 157.98 208.013 158.318 208.013Z" fill="#0D968B"/>
<path d="M144.283 208.013C144.62 208.013 144.893 207.739 144.893 207.4C144.893 207.062 144.62 206.788 144.283 206.788C143.945 206.788 143.672 207.062 143.672 207.4C143.672 207.739 143.945 208.013 144.283 208.013Z" fill="#0D968B"/>
<path d="M130.859 207.4C130.859 207.739 130.585 208.013 130.247 208.013C129.91 208.013 129.637 207.739 129.637 207.4C129.637 207.062 129.91 206.788 130.247 206.788C130.585 206.787 130.859 207.062 130.859 207.4Z" fill="#0D968B"/>
<path d="M116.823 207.4C116.823 207.739 116.55 208.013 116.212 208.013C115.875 208.013 115.602 207.739 115.602 207.4C115.602 207.062 115.875 206.788 116.212 206.788C116.55 206.787 116.823 207.062 116.823 207.4Z" fill="#0D968B"/>
<path d="M102.177 208.013C102.514 208.013 102.788 207.739 102.788 207.4C102.788 207.062 102.514 206.788 102.177 206.788C101.84 206.788 101.566 207.062 101.566 207.4C101.566 207.739 101.84 208.013 102.177 208.013Z" fill="#0D968B"/>
<path d="M88.7534 207.4C88.7534 207.739 88.48 208.013 88.142 208.013C87.8046 208.013 87.5312 207.739 87.5312 207.4C87.5312 207.062 87.8046 206.788 88.142 206.788C88.48 206.787 88.7534 207.062 88.7534 207.4Z" fill="#0D968B"/>
</g>
<path d="M117.843 155.615C117.843 155.615 114.045 174.842 112.146 182.457C112.146 182.457 129.807 189.501 137.592 192.166C137.592 192.166 138.732 202.887 137.592 208.663" stroke="black" stroke-width="0.804298" stroke-miterlimit="10" stroke-linecap="round" stroke-linejoin="round"/>
<path d="M113.832 175.075L119.198 185.238L112.146 182.456L113.832 175.075Z" fill="black"/>
<path d="M112.778 118.986C113.232 125.458 118.526 130.715 126.75 128.559L127.553 128.336L125.719 134.514C125.719 134.514 127.295 140.782 134.184 140.319C143.897 139.667 145.93 135.586 145.93 135.586L146.252 118.096C146.252 118.096 150.586 119.628 150.71 113.191C150.84 106.357 146.076 107.631 146.076 107.631L146.047 107.203C146.18 98.0719 140.185 92.8953 132.673 92.0108L130.94 91.788C130.94 91.788 110.572 87.4983 112.778 118.986Z" fill="#FFCFA4"/>
<path d="M125.469 85.9306C125.469 85.9306 126.012 84.3005 128.073 82.8556C130.134 81.4101 132.167 82.8556 132.167 82.8556C132.167 82.8556 142.408 79.551 149.587 85.9306C156.765 92.3101 152.56 98.1287 152.56 98.1287C152.56 98.1287 156.706 99.7883 152.014 107.631C152.014 107.631 134.426 89.7351 125.469 85.9306Z" fill="#E9590C"/>
<path d="M146.076 124.563C146.076 124.563 152.532 122.759 150.712 118.461C150.712 118.461 158.964 108.856 151.036 105.886C151.036 105.886 152.774 97.9515 135.291 91.5911C135.291 91.5911 124.524 80.8923 118.586 85.2307C118.586 85.2307 117.243 87.1786 116.7 88.8476C116.7 88.8476 110.321 86.8083 109.854 94.1828C109.854 94.1828 110.055 96.0838 111.542 97.0368C111.542 97.0368 112.655 96.0184 115.714 95.0185C115.714 95.0185 115.503 96.8504 115.874 98.9675C115.874 98.9675 117.11 97.0757 118.586 95.4456C118.586 95.4456 134.764 93.8872 138.715 100.917C142.666 107.946 142.666 111.172 142.666 112.465C142.666 113.757 145.404 110.143 146.074 107.63C146.074 107.63 150.367 106.893 150.711 112.465C150.711 112.465 151.149 119.129 146.25 118.096L146.076 124.563Z" fill="black"/>
<path d="M152.559 98.1285C152.559 98.1285 145.511 88.8727 132.166 82.8555" stroke="black" stroke-width="0.804298" stroke-miterlimit="10" stroke-linecap="round" stroke-linejoin="round"/>
<path d="M146.003 111.462C146.003 111.462 145.15 112.272 145.974 112.697C147.73 113.605 145.342 114.062 145.895 114.744" stroke="black" stroke-width="0.804298" stroke-miterlimit="10" stroke-linecap="round" stroke-linejoin="round"/>
<path d="M145.799 109.476C145.799 109.476 148.93 107.907 148.403 112.465" stroke="black" stroke-width="0.804298" stroke-miterlimit="10" stroke-linecap="round" stroke-linejoin="round"/>
<path d="M126.506 103.509C126.925 103.514 127.525 103.516 128.047 103.558C128.588 103.593 129.135 103.647 129.683 103.736C130.231 103.825 130.78 103.94 131.345 104.059C131.917 104.166 132.484 104.311 133.131 104.39L133.146 104.392C133.303 104.411 133.445 104.299 133.465 104.141C133.474 104.066 133.452 103.993 133.41 103.935C133.013 103.399 132.518 102.956 131.97 102.597C131.429 102.219 130.819 101.966 130.199 101.736C129.576 101.512 128.924 101.366 128.26 101.281C127.577 101.21 126.958 101.182 126.173 101.329C125.578 101.441 125.187 102.015 125.298 102.611C125.396 103.135 125.849 103.501 126.361 103.508L126.506 103.509Z" fill="black"/>
<mask id="mask1_13046_4365" style="mask-type:luminance" maskUnits="userSpaceOnUse" x="113" y="100" width="7" height="6">
<path d="M115.218 100.227C115.218 100.227 114.153 102.212 113.408 105.789C113.408 105.789 119.14 106.459 119.957 104.297C119.958 104.297 120.695 101.071 115.218 100.227Z" fill="white"/>
</mask>
<g mask="url(#mask1_13046_4365)">
<path d="M117.956 102.376C117.418 102.128 116.987 102.046 116.488 101.986C116.003 101.939 115.512 101.956 115.031 102.038C114.551 102.119 114.074 102.247 113.645 102.489C113.214 102.715 112.829 103.041 112.55 103.46C112.456 103.6 112.494 103.79 112.633 103.884C112.673 103.911 112.716 103.927 112.761 103.933L112.79 103.937C113.269 104.001 113.658 103.995 114.044 104.029C114.424 104.053 114.781 104.058 115.137 104.1C115.492 104.137 115.842 104.185 116.187 104.252C116.518 104.303 116.91 104.4 117.162 104.431L117.372 104.456C117.97 104.529 118.514 104.101 118.586 103.502C118.644 103.018 118.376 102.569 117.956 102.376Z" fill="black"/>
</g>
<mask id="mask2_13046_4365" style="mask-type:luminance" maskUnits="userSpaceOnUse" x="112" y="104" width="9" height="11">
<path d="M113.63 104.799C113.63 104.799 112.696 108.115 112.637 113.384C112.637 113.384 115.508 114.837 117.728 113.311C118.753 112.605 119.359 111.049 120.132 108.585C120.131 108.585 117.544 105.494 113.63 104.799Z" fill="white"/>
</mask>
<g mask="url(#mask2_13046_4365)">
<path d="M108.897 110.451C109.495 109.409 110.349 108.58 111.4 107.948C112.441 107.318 113.755 106.985 115.043 107.149C116.325 107.326 117.497 107.919 118.386 108.727C118.841 109.118 119.195 109.596 119.576 110.035C119.881 110.531 120.183 111.021 120.434 111.533C120.51 111.689 120.446 111.878 120.289 111.955C120.18 112.008 120.055 111.993 119.963 111.924L119.933 111.902C119.485 111.566 119.09 111.209 118.697 110.859L118.066 110.402C117.852 110.262 117.677 110.063 117.447 109.963C117.226 109.846 117.015 109.723 116.808 109.594C116.607 109.446 116.368 109.409 116.154 109.31L115.831 109.17C115.724 109.125 115.608 109.117 115.498 109.088C115.274 109.053 115.058 108.954 114.831 108.961C113.04 108.704 111.157 109.674 109.471 110.914L109.439 110.938C109.273 111.059 109.04 111.023 108.919 110.857C108.83 110.734 108.826 110.575 108.897 110.451Z" fill="black"/>
</g>
<path d="M123.162 111.81C123.773 110.783 124.629 109.963 125.669 109.325C126.7 108.692 127.997 108.329 129.295 108.464C130.588 108.591 131.797 109.188 132.687 110.009C133.154 110.4 133.497 110.893 133.876 111.34C134.176 111.844 134.468 112.346 134.705 112.868C134.785 113.042 134.708 113.249 134.533 113.329C134.413 113.384 134.277 113.365 134.179 113.289L134.144 113.262C133.699 112.921 133.312 112.557 132.926 112.201L132.303 111.739C132.101 111.586 131.92 111.401 131.695 111.298C131.477 111.181 131.275 111.046 131.069 110.919C130.865 110.787 130.631 110.743 130.423 110.638L130.104 110.5L129.772 110.424C129.551 110.379 129.336 110.291 129.11 110.294C128.218 110.18 127.29 110.359 126.37 110.722C125.458 111.092 124.542 111.638 123.688 112.251L123.661 112.27C123.505 112.381 123.289 112.346 123.177 112.189C123.095 112.075 123.094 111.925 123.162 111.81Z" fill="black"/>
<path d="M127.554 128.336L132.187 127.4L126.242 132.751L127.554 128.336Z" fill="black"/>
<path d="M117.156 118C117.156 118 120.453 118.612 125.467 118.459C125.467 118.459 125.448 123.683 120.851 123.479C117.4 123.325 117.156 118 117.156 118Z" fill="black"/>
<path d="M124.942 120.901C124.942 120.901 122.246 120.576 120.1 122.021C119.471 122.444 119.689 123.349 120.451 123.479C120.994 123.572 121.728 123.557 122.69 123.285C122.69 123.285 124.335 122.688 124.942 120.901Z" fill="#E9590C"/>
<path d="M117.156 118C117.156 118 120.18 121.201 125.467 118.459L117.156 118Z" fill="white"/>
<path d="M146.252 118.097L144.354 117.398" stroke="black" stroke-width="0.804298" stroke-miterlimit="10" stroke-linecap="round" stroke-linejoin="round"/>
<path d="M120.112 108.486C119.223 111.877 117.717 112.806 117.717 112.806C117.717 112.806 116.847 113.404 117.113 114.264C117.379 115.123 117.925 114.76 118.586 115.32" stroke="black" stroke-width="0.804298" stroke-miterlimit="10" stroke-linecap="round" stroke-linejoin="round"/>
<path d="M120.443 114.939C120.443 114.939 120.573 114.902 120.792 114.959C121.012 115.014 121.151 115.251 121.151 115.251" stroke="black" stroke-width="0.804298" stroke-miterlimit="10" stroke-linecap="round" stroke-linejoin="round"/>
<path d="M122.182 113.367C122.182 113.367 123.286 114.227 122.214 115.53" stroke="black" stroke-width="0.804298" stroke-miterlimit="10" stroke-linecap="round" stroke-linejoin="round"/>
<path d="M146.075 107.63L135.291 110.305" stroke="black" stroke-width="0.804298" stroke-miterlimit="10" stroke-linecap="round" stroke-linejoin="round"/>
<path d="M122.073 110.882C121.778 114.561 124.513 117.782 128.183 118.078C131.852 118.374 135.066 115.631 135.361 111.953C135.656 108.274 132.92 105.052 129.251 104.757C125.581 104.461 122.367 107.203 122.073 110.882Z" stroke="black" stroke-width="0.804298" stroke-miterlimit="10" stroke-linecap="round" stroke-linejoin="round"/>
<path d="M119.809 109.481C119.78 106.094 117.473 103.265 114.412 103.018C111.149 102.755 108.265 105.524 107.97 109.203C107.675 112.881 110.08 116.077 113.343 116.34C114.767 116.454 116.119 115.992 117.215 115.128" stroke="black" stroke-width="0.804298" stroke-miterlimit="10" stroke-linecap="round" stroke-linejoin="round"/>
<path d="M122.245 109.82C122.245 109.82 121.151 108.673 119.85 109.36" stroke="black" stroke-width="0.804298" stroke-miterlimit="10" stroke-linecap="round" stroke-linejoin="round"/>
<path d="M145.6 136.068C145.6 136.068 142.396 140.579 132.933 140.343C132.933 140.343 128.173 140.146 126.229 135.817" stroke="black" stroke-width="0.804298" stroke-miterlimit="10" stroke-linecap="round" stroke-linejoin="round"/>
<path d="M150.606 133.612L135.425 128.382C134.394 127.942 133.915 126.747 134.355 125.714L145.521 99.4756C145.96 98.4424 147.152 97.9622 148.183 98.4029L163.364 103.633C164.395 104.073 164.874 105.268 164.434 106.301L153.268 132.539C152.828 133.573 151.637 134.053 150.606 133.612Z" fill="#164F64"/>
<path d="M153.824 152.275C153.824 152.275 155.778 144.53 156.705 138.554C156.705 138.554 165.712 136.032 168.493 135.368C168.493 135.368 169.935 146.088 170.252 151.41C170.252 151.41 162.466 152.718 153.824 152.275Z" fill="#FFCFA4"/>
<path d="M159.936 117.028C161.781 119.019 167.583 125.956 168.493 135.368C168.493 135.368 160.566 139.648 156.706 138.555C156.706 138.555 150.271 134.052 149.351 129.811C148.432 125.571 145.766 123.083 143.651 124.65C143.651 124.65 141.91 125.459 141.418 124.261C140.926 123.065 142.402 121.304 143.455 120.53C143.455 120.53 140.786 120.389 140.576 118.981C140.365 117.572 141.418 116.164 143.104 115.953C143.104 115.953 142.121 114.967 143.174 113.348C144.228 111.728 146.967 111.517 148.512 111.588C150.058 111.658 154.139 115.46 154.521 116.164C154.904 116.868 154.841 112.784 154.521 111.939C154.201 111.094 150.198 106.236 152.656 104.828C155.115 103.419 157.573 108.067 158.907 110.813C159.828 112.708 159.7 114.669 159.532 115.704C159.454 116.186 159.605 116.671 159.936 117.028Z" fill="#FFCFA4"/>
<path d="M152.483 118.575C152.483 118.575 150.899 116.406 148.929 115.36C148.321 115.038 143.104 115.953 143.104 115.953" stroke="black" stroke-width="0.804298" stroke-miterlimit="10" stroke-linecap="round" stroke-linejoin="round"/>
<path d="M143.104 120.495C143.104 120.495 145.422 119.776 147.793 119.388C150.165 119.001 151.865 123.183 151.865 123.183" stroke="black" stroke-width="0.804298" stroke-miterlimit="10" stroke-linecap="round" stroke-linejoin="round"/>
<path d="M156.297 206.66C143.531 182.664 153.824 152.275 153.824 152.275C153.824 152.275 160.149 153.078 170.252 151.41C170.252 151.41 171.316 167.37 171.316 179.036" stroke="black" stroke-width="0.804298" stroke-miterlimit="10" stroke-linecap="round" stroke-linejoin="round"/>
<path d="M187.092 204.248H153.65V208.482H187.092V204.248Z" fill="#383838"/>
<path d="M137.65 195.372L137.561 208.482C137.561 208.482 148.476 210.162 152.25 203.283C152.25 203.283 158.344 207.663 160.912 205.457C160.912 205.457 163.775 206.928 166.306 205.383C166.306 205.383 168.69 207.001 171.185 205.089C171.185 205.089 175.221 206.707 176.101 203.617C176.982 200.527 164.727 195.599 160.178 193.171C155.628 190.744 150.859 192.804 148.364 193.834C145.87 194.863 141.733 195.439 137.65 195.372Z" fill="#FFCFA4"/>
<path d="M143.016 204.833C143.016 204.833 146.447 206.351 151.089 202.557C151.089 202.557 154.896 205.477 157.812 205.939" stroke="black" stroke-width="0.804298" stroke-miterlimit="10" stroke-linecap="round" stroke-linejoin="round"/>
<path d="M160.911 205.456C160.911 205.456 163.349 203.619 151.895 198.358" stroke="black" stroke-width="0.804298" stroke-miterlimit="10" stroke-linecap="round" stroke-linejoin="round"/>
<path d="M166.305 205.383C166.305 205.383 169.555 202.557 155.932 196.639" stroke="black" stroke-width="0.804298" stroke-miterlimit="10" stroke-linecap="round" stroke-linejoin="round"/>
<path d="M171.186 205.088C171.186 205.088 174.249 201.444 159.264 195.475" stroke="black" stroke-width="0.804298" stroke-miterlimit="10" stroke-linecap="round" stroke-linejoin="round"/>
<path d="M137.84 195.375L137.65 207.056" stroke="black" stroke-width="0.804298" stroke-miterlimit="10" stroke-linecap="round" stroke-linejoin="round"/>
<path d="M140.736 195.302C140.736 195.302 146.752 194.639 150.414 193.028C154.076 191.417 158.291 192.22 160.179 193.171" stroke="black" stroke-width="0.804298" stroke-miterlimit="10" stroke-linecap="round" stroke-linejoin="round"/>
<path d="M239.681 166.464H184.709C183.737 166.464 182.87 167.08 182.548 168L169.444 205.424C168.921 206.918 170.026 208.482 171.605 208.482H226.576C227.549 208.482 228.415 207.866 228.738 206.946L241.842 169.521C242.365 168.028 241.259 166.464 239.681 166.464Z" fill="black"/>
<path d="M179.777 175.916L174.635 190.6" stroke="black" stroke-width="0.804298" stroke-miterlimit="10" stroke-linecap="round" stroke-linejoin="round"/>
<path d="M209.957 188.547C209.329 191.081 207.192 192.729 205.182 192.228C203.173 191.728 202.053 189.269 202.68 186.735C203.308 184.202 205.446 182.553 207.455 183.054C209.466 183.554 210.585 186.014 209.957 188.547Z" fill="#FFFBF8"/>
<path d="M255.197 208.481H19.3359V214.642H255.197V208.481Z" fill="#94332A"/>
<path d="M28.4119 214.642L11 318.999" stroke="black" stroke-width="0.804298" stroke-miterlimit="10" stroke-linecap="round" stroke-linejoin="round"/>
<path d="M73 214.642L90.4113 318.999" stroke="black" stroke-width="0.804298" stroke-miterlimit="10" stroke-linecap="round" stroke-linejoin="round"/>
<path d="M241.234 214.642L258.646 318.999" stroke="black" stroke-width="0.804298" stroke-miterlimit="10" stroke-linecap="round" stroke-linejoin="round"/>
</g>
<defs>
<clipPath id="clip0_13046_4365">
<rect width="270" height="300" fill="white"/>
</clipPath>
</defs>
</svg>
